<svg width="550" height="550" xmlns="http://www.w3.org/2000/svg" xmlns:xlink="http://www.w3.org/1999/xlink">
    <defs>
        <linearGradient x1="74.192%" y1="45.53%" x2="34.559%" y2="55.572%" id="c">
            <stop stop-color="#D40D0D" offset="0%"/>
            <stop stop-color="#9D0000" offset="49.617%"/>
            <stop stop-color="#A20303" offset="68.755%"/>
            <stop stop-color="#BB1010" offset="82.394%"/>
            <stop stop-color="maroon" offset="100%"/>
        </linearGradient>
        <linearGradient x1="83.691%" y1="50%" x2="39.166%" y2="53.337%" id="d">
            <stop stop-color="#D11212" offset="0%"/>
            <stop stop-color="#7F0A0A" offset="100%"/>
        </linearGradient>
        <linearGradient x1="67.841%" y1="35.883%" x2="45.811%" y2="58.403%" id="e">
            <stop stop-color="#D71313" offset="0%"/>
            <stop stop-color="#A60A0A" offset="33.41%"/>
            <stop stop-color="#DE2626" offset="55.931%"/>
            <stop stop-color="#5B0000" offset="100%"/>
        </linearGradient>
        <linearGradient x1="83.691%" y1="50%" x2="39.166%" y2="51.764%" id="f">
            <stop stop-color="#D11212" offset="0%"/>
            <stop stop-color="#7F0A0A" offset="100%"/>
        </linearGradient>
        <linearGradient x1="98.525%" y1="23.342%" x2="13.992%" y2="79.178%" id="g">
            <stop stop-color="#BF1B1B" offset="0%"/>
            <stop stop-color="#D31010" offset="41.562%"/>
            <stop stop-color="#500000" offset="100%"/>
        </linearGradient>
        <linearGradient x1="56.555%" y1="6.226%" x2="44.94%" y2="88.861%" id="h">
            <stop stop-color="#570000" offset="0%"/>
            <stop stop-color="#AD1515" offset="55.225%"/>
            <stop stop-color="#510000" offset="100%"/>
        </linearGradient>
        <linearGradient x1="51.158%" y1="19.963%" x2="53.571%" y2="91.919%" id="i">
            <stop stop-color="#5C0000" offset="0%"/>
            <stop stop-color="#AE0F0F" offset="45.97%"/>
            <stop stop-color="#2C0000" offset="100%"/>
        </linearGradient>
        <linearGradient x1="74.107%" y1="30.143%" x2="31.472%" y2="82.578%" id="j">
            <stop stop-color="#E62828" offset="0%"/>
            <stop stop-color="#8E0A0A" offset="100%"/>
            <stop stop-color="#8E0A0A" offset="100%"/>
        </linearGradient>
        <linearGradient x1="8.085%" y1="47.91%" x2="100%" y2="54.843%" id="k">
            <stop stop-color="#CE2020" offset="0%"/>
            <stop stop-color="#FF4949" offset="52.282%"/>
            <stop stop-color="#D02020" offset="100%"/>
        </linearGradient>
        <linearGradient x1="8.085%" y1="49.058%" x2="100%" y2="52.183%" id="l">
            <stop stop-color="#D52222" offset="0%"/>
            <stop stop-color="#FF4949" offset="39.024%"/>
            <stop stop-color="#CC1F1F" offset="100%"/>
        </linearGradient>
        <linearGradient x1="0%" y1="52.45%" x2="96.141%" y2="69.543%" id="m">
            <stop stop-color="#D22222" offset="0%"/>
            <stop stop-color="#D82323" offset="35.358%"/>
            <stop stop-color="#FE7474" offset="59.169%"/>
            <stop stop-color="#DA2424" offset="83.38%"/>
            <stop stop-color="#D62323" offset="100%"/>
        </linearGradient>
        <linearGradient x1="40.775%" y1="2.292%" x2="59.719%" y2="90.656%" id="n">
            <stop stop-color="#E62828" offset="0%"/>
            <stop stop-color="#FF7979" offset="51.089%"/>
            <stop stop-color="#E32828" offset="100%"/>
        </linearGradient>
        <linearGradient x1="53.176%" y1="0%" x2="50%" y2="100%" id="o">
            <stop stop-color="#920B0B" offset="0%"/>
            <stop stop-color="#E84B4B" offset="45.514%"/>
            <stop stop-color="#8D0909" offset="76.477%"/>
            <stop stop-color="#8E0A0A" offset="100%"/>
        </linearGradient>
        <linearGradient x1="90.045%" y1="46.602%" x2="13.322%" y2="52.669%" id="p">
            <stop stop-color="#E72929" offset="0%"/>
            <stop stop-color="#FF6E6E" offset="55.737%"/>
            <stop stop-color="#E12626" offset="100%"/>
        </linearGradient>
        <linearGradient x1="90.045%" y1="45.891%" x2="13.322%" y2="53.228%" id="q">
            <stop stop-color="#E72929" offset="0%"/>
            <stop stop-color="#FF6E6E" offset="55.737%"/>
            <stop stop-color="#E12626" offset="100%"/>
        </linearGradient>
        <linearGradient x1="60.738%" y1="0%" x2="40.989%" y2="100%" id="r">
            <stop stop-color="#AA1313" offset="0%"/>
            <stop stop-color="#A41111" offset="22.645%"/>
            <stop stop-color="#FF6E6E" offset="55.737%"/>
            <stop stop-color="#980D0D" offset="76.691%"/>
            <stop stop-color="#930B0B" offset="100%"/>
        </linearGradient>
        <linearGradient x1="96.162%" y1="36.828%" x2="3.542%" y2="61.202%" id="s">
            <stop stop-color="#E12727" offset="0%"/>
            <stop stop-color="#FF6767" offset="49.905%"/>
            <stop stop-color="#BA1919" offset="100%"/>
        </linearGradient>
        <linearGradient x1="101.007%" y1="43.062%" x2="0%" y2="56.938%" id="t">
            <stop stop-color="#E02626" offset="0%"/>
            <stop stop-color="#FF5E5E" offset="28.411%"/>
            <stop stop-color="#D92424" offset="100%"/>
        </linearGradient>
        <linearGradient x1="57.086%" y1="19.888%" x2="7.828%" y2="80.152%" id="u">
            <stop stop-color="#DBDBDB" offset="0%"/>
            <stop stop-color="#838383" offset="100%"/>
        </linearGradient>
        <linearGradient x1="77.879%" y1="27.153%" x2="13.189%" y2="86.503%" id="v">
            <stop stop-color="#FFF" offset="0%"/>
            <stop stop-color="#C5C5C5" offset="100%"/>
        </linearGradient>
        <path id="a" d="M0 0h550v550H0z"/>
    </defs>
    <g fill="none" fill-rule="evenodd">
        <mask id="b" fill="#fff">
            <use xlink:href="#a"/>
        </mask>
        <g mask="url(#b)">
            <path d="m450.417 225.209.507.005c3.709.078 7.158 1.018 10.172 2.657l31.286 17.02-.41-.216c-3.984-2.059-8.694-2.91-13.737-2.202l-.6.09c-13.317 2.118-22.785 11.874-31.967 21.347l-22.504-12.244c-1.846-.05-3.74.057-5.67.328l-.772.116a45.828 45.828 0 0 0-9.037 2.426l-31.286-17.02.737-.272a45.33 45.33 0 0 1 9.073-2.27 34.366 34.366 0 0 1 4.782-.34l.574.005c4.776.085 9.238 1.228 13.158 3.361l11.97 6.511.58-.59.833-.845c8.209-8.282 17.013-15.96 28.841-17.622a24.81 24.81 0 0 1 3.47-.245z" fill="url(#c)" transform="translate(22 59)"/>
            <path d="M407.904 142.695c2.582.277 5.045.81 7.428 1.566 2.089.666 4.091 1.52 5.984 2.552l-31.286-17.02a34.41 34.41 0 0 0-5.986-2.551 37.765 37.765 0 0 0-7.427-1.566l31.287 17.019z" fill="url(#d)" transform="translate(22 59)"/>
            <path d="m298.263 36.576 31.288 17.02-19.77 2.778-.497.075c-4.469.73-8.734 2.798-12.36 5.826l-.401.34-1.142-.622-.215-.107c-3.426-1.667-7.352-2.333-11.445-1.846l-.473.062-.188-.103.19.104-19.781 2.78-.417.062c-9.03 1.44-17.23 8.318-21.085 17.693l-.178.44.002.001-13.574 34.5-.6-.178c-5.44-1.564-11.817-2.226-19.174-1.988l-.822.03-31.286-17.02c.941-.039 1.867-.063 2.777-.073l.904-.004.8.003c5.83.057 10.988.732 15.503 2.029l.612.18 13.574-34.498.126.068-.126-.068c3.775-9.6 12.09-16.672 21.26-18.135l.416-.063h.002l19.78-2.78.621-.078a22.06 22.06 0 0 1 2.458-.138l.517.006c3.093.075 6.033.82 8.666 2.166l.435.23.587.32c3.707-3.21 8.12-5.403 12.75-6.158l.497-.076 14.03 7.632-14.03-7.632 19.77-2.778zm3.1-.22.516.005c3.086.075 6.014.816 8.637 2.158l.435.229 31.286 17.019-.388-.205c-3.51-1.807-7.571-2.537-11.825-2.03l-.473.062-31.287-17.02c1.045-.146 2.08-.219 3.099-.219z" fill="url(#e)" transform="translate(22 59)"/>
            <path d="M335.773 82.154c-8.521 1.198-16.717 4.45-24.397 9.113l31.285 17.019c7.681-4.663 15.877-7.915 24.398-9.111 8.184-1.15 15.466.097 21.533 3.397l-31.285-17.02c-4.588-2.495-9.867-3.817-15.706-3.817-1.886 0-3.83.14-5.828.42" fill="url(#f)" transform="translate(22 59)"/>
            <path d="M206.182 20.678c-34.371 5.019-69.36 19.213-96.139 39.042l-.969.722c-31.815 23.877-49.345 53.372-49.4 83.167l.003.699c.12 16.267 5.531 29.79 14.5 38.824l-31.288-17.02-.382-.39c-8.865-9.161-14.15-22.787-14.12-39.132l.007-.903C28.803 95.9 46.653 66.462 78.757 42.7c27.057-20.032 62.488-34.314 97.2-39.192l.227-.032c3.506-.488 11.729-1.532 20.341-2.362l1.15-.11c4.8-.449 9.66-.822 13.839-.987.288-.01.574-.016.858-.016l.499.006c3.315.077 6.4.92 9.108 2.393l31.276 17.014-.393-.207c-2.846-1.463-6.088-2.24-9.564-2.183l-.498.014-.505.02c-12.189.522-29.78 2.729-35.05 3.47z" fill="url(#g)" transform="translate(22 59)"/>
            <path d="m42.89 166.112 31.286 17.02h-.001.001l-.391.365-.361.34a218.105 218.105 0 0 0-.787.742l.374-.354-.696.661.322-.307-.504.48.182-.173c-21.419 20.419-40.969 47.513-41.029 79.6l.002.59c.127 18.213 7.725 31.914 20.148 38.673L20.15 286.728l-.397-.22C7.484 279.63.03 265.896 0 247.703v-.235c.062-33.016 20.757-60.744 42.889-81.355h.001z" fill="url(#h)" transform="translate(22 59)"/>
            <path d="M50.873 300.209c-5.608 7.349-9.965 15.234-12.958 23.426-3.458 9.36-5.005 19.27-4.472 28.7.498 9.374 3.152 18.528 7.753 26.637 3.925 6.77 9.156 12.726 15.566 17.697 3.117 2.431 6.53 4.655 10.178 6.64l31.287 17.019c-3.65-1.985-7.063-4.207-10.178-6.64-6.41-4.971-11.642-10.927-15.565-17.697-4.602-8.11-7.256-17.263-7.755-26.637-.533-9.428 1.014-19.339 4.472-28.7 2.993-8.192 7.35-16.076 12.959-23.425a100.964 100.964 0 0 1 14.747-15.456l-31.286-17.022a101.034 101.034 0 0 0-14.748 15.458" fill="url(#i)" transform="translate(22 59)"/>
            <path d="M207.244 20.526c5.344-.75 23.354-3.009 35.557-3.49 11.366-.447 20.342 8.021 21.365 20.133 1.02 12.112-6.202 24.47-17.192 29.384-19.693 8.807-31.116 27.58-39.352 46.89 7.98-.327 14.827.384 20.595 2.136l13.573-34.5c3.833-9.745 12.344-16.886 21.678-18.197l19.781-2.78c4.817-.677 9.42.243 13.275 2.513 3.842-3.329 8.441-5.565 13.256-6.241l19.77-2.779c8.071-1.135 15.496 2.176 19.869 8.858 4.384 6.68 5.039 15.689 1.747 24.1l-8.504 21.733c7.68-4.663 15.877-7.915 24.398-9.111 24.124-3.39 40.415 14.05 40.844 43.52 2.583.277 5.044.81 7.428 1.566 6.074 1.934 11.422 5.478 15.468 10.248 4.389 5.15 7.377 12.038 8.408 19.392.823 5.745.593 11.852-.684 18.177-.943 4.7-2.457 9.41-4.61 14.363-3.377 7.629-7.81 14.635-13.616 21.597-4.693 5.619-10.077 10.849-16.022 15.551 1.565 3.363 2.801 6.987 3.41 10.947 3.19-1.208 6.455-2.07 9.808-2.54 9.545-1.343 18.235 1.303 24.478 7.45a29.753 29.753 0 0 1 3.697 4.464c9.317-9.614 18.932-19.52 32.565-21.437 14.338-2.015 25.97 8.583 25.942 23.619-.008 4.473-.973 8.928-2.772 13.037 1.48 2.686 2.54 5.73 3.095 8.926.935 5.41.561 10.896-1.12 16.85-2.344 7.9-5.884 13.511-8.363 17.075-2.48 3.552-5.28 6.946-8.594 10.426-.617.644-1.245 1.267-1.884 1.903-8.831 14.066-21.742 23.13-36.068 25.143-8.269 1.161-15.95-.464-22.273-4.403-6.12 3.6-12.424 7.06-18.862 10.338a509.822 509.822 0 0 1-32.311 14.958c-10.407 4.44-21.375 8.7-32.528 12.639-22.923 8.063-44.25 14.548-65.21 19.82a817.994 817.994 0 0 1-32.684 7.594c-12.185 2.567-23.027 4.578-33.133 6.116a654.67 654.67 0 0 1-9.279 1.376c-8.268 1.16-16.186 2.096-23.957 2.81-12.82 1.195-24.154 1.59-34.629 1.211-7.398-.277-13.497-.962-19.222-2.163-7.164-1.59-13.162-3.466-18.566-5.779-6.557-2.756-12.575-6.228-17.767-10.28-6.41-4.972-11.643-10.928-15.566-17.698-4.6-8.11-7.255-17.263-7.755-26.637-.531-9.428 1.014-19.339 4.473-28.7 2.994-8.192 7.35-16.077 12.96-23.426a100.961 100.961 0 0 1 14.747-15.456c-5.93 3.1-12.101 5.224-18.533 6.129-27.774 3.903-47.143-13.948-47.088-43.415.062-33.016 20.757-60.744 42.889-81.355-9.095-9.162-14.534-22.943-14.502-39.522.056-30.096 17.94-59.886 50.368-83.89 27.057-20.032 62.49-34.315 97.202-39.193" fill="url(#j)" transform="translate(22 59)"/>
            <path d="M408.466 255.376c10.076-3.609 16.399-2.879 21.268-1.801 4.869 1.077 10.016 4.417 14.094 9.626" stroke="url(#k)" stroke-width="2" stroke-linecap="round" transform="translate(22 59)"/>
            <path d="M480.054 300.2c7.399-3.613 17.232-3.249 22.101-2.171 4.87 1.077 10.751 3.623 17.103 7.078" stroke="url(#l)" stroke-width="2" stroke-linecap="round" transform="rotate(93 482.662 341.136)"/>
            <path d="M449.153 262.694c18.338-20.2 30.95-20.383 38.432-18.615 7.482 1.769 21.183 12.664 13.403 33.164" stroke="url(#m)" stroke-width="2" stroke-linecap="round" transform="translate(22 59)"/>
            <path d="M420.501 147.634c8.461 4.501 12.84 11.469 14.972 16.496 2 4.715 3.994 12.15 2.888 22.534" stroke="url(#n)" stroke-width="2" stroke-linecap="round" transform="translate(22 59)"/>
            <path d="M87.482 312.379c-10.903 11.833-19.97 29.428-21.465 46.862-1.495 17.435 2.78 29.443 9.303 39.49" stroke="url(#o)" stroke-width="2" stroke-linecap="round" transform="translate(22 59)"/>
            <path d="M297.164 63.901c-.63.367-.93.535-.901.505 2.932-3.002 8.106-5.847 11.911-6.674 2.025-.44 7.709-1.177 11.525-1.634 2.31-.276 5.843-.767 10.6-1.47" stroke="url(#p)" stroke-width="2" stroke-linecap="round" transform="translate(22 59)"/>
            <path d="M346.84 107.181c6.087-3.004 10.594-4.897 13.521-5.678 8.022-2.142 15.496-1.966 19.573-1.04 4.477 1.016 9.27 3.104 13.025 6.367 1.987 1.727 4.514 5.044 7.581 9.95" stroke="url(#q)" stroke-width="2" stroke-linecap="round" transform="translate(22 59)"/>
            <path d="M32.764 270.46c-1.407-12.946 1.062-26.523 7.405-40.732 6.344-14.21 16.332-27.787 29.964-40.733" stroke="url(#r)" stroke-width="2" stroke-linecap="round" transform="translate(22 59)"/>
            <path d="M241.803 18.111c-21.06 1.668-36.63 3.522-46.71 5.564-24.502 4.962-46.52 13.915-64.215 23.893-28.614 16.136-49.04 36.25-61.277 60.343" stroke="url(#s)" stroke-width="2" stroke-linecap="round" transform="translate(22 59)"/>
            <path d="M246.443 74.934c3.836-5.101 8.16-8.454 12.974-10.058 2.72-.906 7.026-1.293 11.882-2.022 2.492-.374 6.543-.943 12.153-1.706" stroke="url(#t)" stroke-width="2" stroke-linecap="round" transform="translate(22 59)"/>
            <path d="m388.983 338.802 3.128 1.703-2.425 1.075c-15.37 6.762-30.997 12.646-46.692 18.143l-3.1 1.068a750.896 750.896 0 0 1-28.028 8.953l-3.907 1.142c-9.12 2.648-18.263 5.171-27.415 7.567l-2.854.745c-19.985 5.166-40.055 9.406-60.124 13.006l-2.806.493a535.82 535.82 0 0 1-16.828 2.644l-2.97.408c-2.968.399-5.934.769-8.898 1.108l-1.849.2c-9.861 1.047-19.711 1.867-29.385 1.864l-1.024-.005c-4.774-.037-9.496-.323-13.977-1.09l-1.137-.207c-4.54-.856-8.989-2.022-13.267-3.522l-.892-.322a59.254 59.254 0 0 1-7.767-3.498l-3.127-1.702.834.444a60.91 60.91 0 0 0 7.822 3.376l1.073.368c4.308 1.446 8.776 2.556 13.331 3.363l.964.156c4.516.697 9.258.934 14.039.938l1.816-.01c9.695-.097 19.556-.981 29.417-2.055l2.372-.277a473.52 473.52 0 0 0 9.497-1.238l2.802-.402a556.44 556.44 0 0 0 16.83-2.734l2.867-.52c20.069-3.664 40.135-7.979 60.113-13.233l3.922-1.034c9.15-2.433 18.288-4.992 27.401-7.674l3.124-.94a736.586 736.586 0 0 0 28.003-9.082c16.521-5.786 32.965-12.001 49.117-19.219zm-274.867-22.885 3.13 1.7-.755.607a73.615 73.615 0 0 0-11.68 11.972l-.471.627c-3.43 4.621-6.344 9.754-8.353 15.28l-.232.64c-1.973 5.562-2.91 11.52-2.583 17.277l.04.643a37.725 37.725 0 0 0 4.81 15.939l.358.603c2.774 4.594 6.398 8.456 10.448 11.594l.73.56a56.182 56.182 0 0 0 6.925 4.432l-3.128-1.7-.797-.442a55.067 55.067 0 0 1-6.86-4.552l-.525-.414c-4.013-3.2-7.58-7.124-10.278-11.784l-.293-.525a37.749 37.749 0 0 1-4.558-16.056l-.032-.665c-.231-5.772.793-11.72 2.847-17.253l.28-.751c2.088-5.49 5.065-10.58 8.543-15.154a73.503 73.503 0 0 1 12.434-12.578zm21.725-2.832.505.006c3.187.074 6.142.85 8.704 2.244l3.13 1.702-.381-.201c-3.455-1.771-7.59-2.446-12.028-1.821l-.497.074c-16.375 2.56-30.17 17.611-30.205 35.739l.002.523c.14 11.806 5.735 20.236 13.912 24.685l-3.128-1.702-.36-.199c-8.1-4.566-13.576-13.102-13.553-25.009l.005-.548c.31-18.065 14.27-32.958 30.695-35.266a23.03 23.03 0 0 1 3.2-.227zm22.374-19.895 3.13 1.703c-.39 4.65-.188 9.164.289 13.613l.114 1.025c.139 1.189.295 2.373.463 3.554.267 1.873.564 3.74.866 5.604l.33 2.025c.933 5.727 1.837 11.454 2.012 17.336a67.7 67.7 0 0 1 .03 2.122l-.004.49-.003.136.007-.626a37.355 37.355 0 0 1-.037 1.577l-.003.061a36.477 36.477 0 0 1-.186 2.37v.01-.01a36.421 36.421 0 0 1-.215 1.606c-2.17 13.858-12.166 25.095-25.695 26.996l-.528.069c-5.276.643-10.379-.233-14.57-2.514l-3.127-1.702.422.223c4.249 2.186 9.388 2.966 14.675 2.222l.458-.068c13.35-2.096 23.169-13.315 25.261-27.09l.083-.574a36.436 36.436 0 0 0 .092-.736l-.062.507c.03-.24.06-.48.086-.721l-.024.214c.032-.278.06-.556.087-.835l-.063.62c.029-.266.055-.534.078-.802l-.015.182a36.776 36.776 0 0 0 .122-1.842l.018-.539.006-.269-.006.269c.009-.308.013-.617.013-.927.007-3.371-.251-6.686-.643-9.973-.115-.964-.241-1.925-.376-2.884a246.8 246.8 0 0 0-.7-4.612 502.11 502.11 0 0 0-.246-1.528l-.075-.46-.33-2.025c-1.173-7.23-2.26-14.49-1.85-22.094.03-.566.068-1.133.116-1.703zm36.564 45.641 3.13 1.702-.238.59c-2.28 5.74-4.163 12.821-4.174 18.729l.002.36c.052 4.307 1.181 7.813 3.943 9.315l-3.128-1.702-.227-.13c-2.671-1.612-3.726-5.196-3.718-9.545.012-6.113 2.024-13.478 4.41-19.319zm30.32 4.59 3.13 1.702-.16.629c-.729 2.942-1.194 6.023-1.2 8.615l.001.304c.03 4.168.87 8.774 4.054 10.505l-3.13-1.702-.228-.132c-3.07-1.87-3.833-6.532-3.825-10.677.006-2.777.538-6.114 1.358-9.244zm33.497-7.46 3.128 1.702-.212.57c-1.543 4.2-2.719 8.709-2.726 13.226l.001.325c.047 3.782 1.039 7.568 3.765 9.05l-3.128-1.702-.23-.132c-2.627-1.613-3.543-5.462-3.537-9.243.01-4.724 1.293-9.436 2.94-13.796zm28.715-1.935 3.13 1.702-.15.8c-.43 2.398-.675 4.766-.68 7.051l.003.365c.072 5.098 1.856 9.627 5.413 11.562l-3.128-1.702-.251-.143c-3.473-2.057-5.174-6.658-5.164-11.784.005-2.54.306-5.18.827-7.851zm-161.2 21.094c.589.4 1.198.773 1.823 1.113l-3.127-1.7a21.949 21.949 0 0 1-2.262-1.42l.245-.061c3.75-1.012 6.88-4.92 7.369-9.15.012-.104.022-.209.03-.313l-.03.312c.016-.143.03-.286.04-.43l-.01.118c.01-.115.018-.23.024-.346l-.014.228a9.92 9.92 0 0 0 .02-.352l-.006.124c.005-.116.01-.233.01-.35l.002-.114a7.972 7.972 0 0 0-.11-1.339 8.175 8.175 0 0 0-.59-1.956l-.116-.25a8.439 8.439 0 0 0-.893-1.452l.033.045a8.218 8.218 0 0 0-2.618-2.272l3.13 1.7.23.132a8.28 8.28 0 0 1 2.54 2.351 8.24 8.24 0 0 1 1.502 4.138c.014.2.022.401.021.604l-.004.278-.003.071.007-.348a9.878 9.878 0 0 1-.078 1.219c-.537 4.286-3.775 8.219-7.603 9.115zm195.045-26.184 3.128 1.704-.161.406c-1.387 3.619-2.408 9.738-2.414 13.338l.003.33c.055 3.287 1.043 5.912 3.213 7.091l-3.128-1.7-.213-.123c-2.093-1.277-3.011-3.972-3.004-7.3.007-3.738 1.106-10.194 2.576-13.746zm28.828-3.34 3.13 1.703-.21.63c-1.165 3.57-2.004 7.188-2.011 10.787l.003.375c.086 4.2 1.754 6.88 4.11 8.161l-3.128-1.702-.206-.117c-2.316-1.364-3.916-4.128-3.908-8.419.007-3.81.949-7.644 2.22-11.417zm-118.787 1.427 3.128 1.702-.161.31c-3.125 5.937-9.385 13.43-14.561 14.157l-.269.033c-.967.097-1.744-.033-2.35-.364l-3.128-1.7.17.085c.638.293 1.448.384 2.447.243 5.267-.74 11.658-8.484 14.724-14.466zm-26.157-14.43 3.129 1.702-10.26 26.239-3.129-1.702 10.26-26.24zm178 5.428 3.129 1.702c-.266 1.734-.423 3.417-.427 5.03-.012 6.718 2.099 12.71 6.37 15.752l-3.13-1.703c-4.27-3.041-6.38-9.033-6.368-15.75.003-1.615.16-3.297.427-5.031zm-111.425-20.1 3.129 1.701-.107.269c-3.57 9.054-13.368 37.445-22.753 38.763l-.257.03c-.756.07-1.375-.043-1.866-.311l-3.129-1.702.169.083c.52.233 1.168.31 1.955.2 9.478-1.335 19.38-30.286 22.86-39.034zm54.172-9.08.356.006c1.175.042 2.23.296 3.127.783l3.128 1.702-.263-.134c-1.337-.639-3-.797-4.864-.535l-.354.054c-11.59 1.88-25.229 16.355-32.375 32.38l-.198.314c-3.207 5.043-7.899 10.576-11.454 11.076l-.254.029c-.749.065-1.37-.062-1.876-.338l-3.127-1.702.173.086c.53.242 1.178.332 1.956.223 3.63-.51 8.443-6.265 11.65-11.39l.222-.49c7.278-15.994 20.96-30.321 32.509-31.944a11.65 11.65 0 0 1 1.644-.12zm110.054 33.754 3.128 1.702c1.303 4.065 3.764 7.32 7.127 9.15l-3.129-1.702c-3.362-1.828-5.825-5.084-7.126-9.15zm-108.52-28.578 3.13 1.702.184.11c1.444.928 2.096 3.115 2.092 5.09l-.003.256c-.182 8.601-8.528 28.1-17.553 29.367l-3.128-1.702.273-.044c9.01-1.633 17.265-21.204 17.282-29.58.004-2.056-.703-4.344-2.276-5.2zm-70.472 5.979 3.128 1.702-15.877 2.232-9.774 24.794-3.128-1.702 9.774-24.794 1.242.675-1.242-.675 15.877-2.232zm99.33 9.342 3.13 1.702-.144.276c-2.8 5.305-8.72 13.677-13.722 14.38l-.22.022a2.916 2.916 0 0 1-1.605-.35l-3.13-1.701.183.09a2.943 2.943 0 0 0 1.644.238c5.091-.715 11.13-9.373 13.865-14.657zm81.908-6.873 3.13 1.702-.261.493c-1.873 3.645-2.873 7.888-3.016 11.63l-1.456.933c-.974.617-1.953 1.224-2.936 1.82l-1.608.974a314.593 314.593 0 0 1-6.49 3.783l-3.13-1.7 1.629-.932c2.17-1.248 4.331-2.52 6.47-3.826a183.14 183.14 0 0 0 4.391-2.753l.025-.513c.221-3.785 1.3-8.021 3.252-11.61zm-15.257-29.397.388.006c1.664.052 3.087.44 4.297 1.099l3.13 1.702-.267-.14c-1.712-.854-3.832-1.183-6.432-.818l-.413.062c-13.626 2.19-27.671 17.905-34.133 33.61l-.194.329c-3.397 5.69-8.456 11.815-12.394 12.37l-.24.025a2.99 2.99 0 0 1-1.675-.344l-3.13-1.702.184.092c.502.227 1.085.317 1.733.225 4.013-.564 9.19-6.915 12.586-12.696l.199-.476c6.614-15.705 20.731-31.283 34.349-33.197a14.523 14.523 0 0 1 2.012-.147zm-5.895 25.098 3.128 1.702c-.006 3.535 1.262 6.702 3.456 8.754l.002.002-.195.315c-2.756 4.393-7.044 8.189-11.683 8.842l-.338.041c-1.557.163-2.847-.092-3.895-.662l-3.128-1.702.228.118c1.084.524 2.409.726 4.004.501 4.749-.667 9.133-4.628 11.878-9.155-2.194-2.052-3.464-5.22-3.457-8.756zm-188.317-14.87 3.13 1.701-.274.571c-5.886 12.122-15.45 20.17-27.308 23.974l-2.198 5.625-3.128-1.703 2.197-5.623c12.044-3.865 21.721-12.106 27.581-24.545zm252.755 9.719 1.106.601 2.023 1.1.145.086c.418.27.7.662.883 1.275l.054.218c.017.08.032.16.045.244a5.197 5.197 0 0 1 .048.484l-.007-.117a7.853 7.853 0 0 1-.03 1.36 9.538 9.538 0 0 1-.027.223l-.01.073c-.034.258-.079.522-.133.787l-.112.498c-.564 2.328-1.728 4.753-3.025 7.061l-.48.825c-1.305 2.19-2.807 4.3-4.413 6.33l-.204.235-.204.235-3.13-1.7.408-.474.598-.765c1.579-2.049 3.042-4.177 4.297-6.39 1.39-2.471 2.625-5.076 3.135-7.558l.06-.308c.036-.206.067-.41.092-.61l.001-.005a7.68 7.68 0 0 0 .038-1.635 4.395 4.395 0 0 0-.13-.713l.034.13a3.278 3.278 0 0 0-.034-.13c-.172-.577-.432-.957-.81-1.226a2.197 2.197 0 0 0-.219-.134l.012.006a2.398 2.398 0 0 0-.01-.006zm-15.734 6.337 3.129 1.702-.136.34c-2.195 5.4-5.404 9.527-10.843 10.292l-.235.025a3.462 3.462 0 0 1-1.38-.19l-3.13-1.701.22.069a3.45 3.45 0 0 0 1.397.095l.337-.052c5.347-.904 8.489-5.128 10.641-10.58zm-99.915-14.657 3.13 1.702-9.544 24.643-3.129-1.702 9.543-24.643zm-134.23 18.865 3.129 1.702-8.39 1.179-3.128-1.702 8.39-1.18zm250.6-39.903.246.008a4.01 4.01 0 0 1 1.654.466l3.127 1.7-.222-.11c-.61-.28-1.305-.4-1.967-.351l-.246.026-.323.05c-3.254.561-6.43 2.666-9.775 5.622l2.973 1.617-.22.317c-2.972 4.427-4.214 12.397-6.096 19.981l-.87.46c-3.173 1.715-6.163 3.73-9.09 5.816l-.775.573-.776.582-3.13-1.702.777-.581.776-.573c3.192-2.276 6.461-4.47 9.96-6.277l.137-.556c.225-.926.443-1.858.655-2.786l.254-1.112c1.354-5.966 2.6-11.695 4.885-15.278-6.137 5.56-12.877 13.837-21.697 20.624l-.177.128c-2.88 2.068-10.548 7.503-16.978 9.57l-3.13-1.704c6.569-2.108 14.427-7.734 17.157-9.696l.477-.37c13.79-10.788 22.475-25.088 31.856-26.407.177-.025.357-.037.537-.037zm-54.918 18.298 3.13 1.702-.264.093c-5.179 1.932-9.601 10.64-9.979 16.118l-3.128-1.702c.383-5.571 4.95-14.482 10.24-16.21zm-139.87 13.761 3.129 1.701-15.69 2.206-3.129-1.702 15.69-2.205zm63.173-46.868 3.128 1.702-18.135 46.043-3.128-1.702 18.135-46.043zm-136.76-105.104.39.005c1.81.049 3.438.442 4.813 1.19l3.128 1.702-.293-.152c-1.982-.983-4.453-1.266-7.218-.876l-.861.133c-28.441 4.763-57.706 47.265-57.762 76.778l.002.521c.071 7.622 2.04 13.885 5.977 17.8l-.85.617c-2.26 1.662-4.483 3.432-6.636 5.37l-.593.533c-3.942 3.58-7.657 7.682-10.797 12.576l-.374.595c-1.483 2.395-2.818 5.016-3.818 7.872l-.173.518c-.96 2.956-1.542 6.205-1.332 9.483l.029.414c.264 3.312 1.467 6.492 3.33 8.782l.29.357c1.371 1.636 2.977 2.844 4.645 3.753l-3.128-1.704-.357-.199c-1.66-.95-3.243-2.211-4.578-3.909l-.23-.29c-1.809-2.363-2.944-5.586-3.127-8.908l-.03-.578c-.12-3.271.53-6.5 1.531-9.421l.257-.71c1.055-2.816 2.431-5.399 3.937-7.758l.475-.728c3.196-4.815 6.95-8.851 10.916-12.38 2.421-2.179 4.93-4.146 7.485-5.988l-.265-.27c-3.847-4.02-5.728-10.37-5.713-18.05l.01-.899c.64-29.77 30.19-72.018 58.61-76.012a16.719 16.719 0 0 1 2.31-.167zm265.88 144.038.351.005c1.152.033 2.134.235 3.089.697l.123.06.122.066 3.129 1.702-.123-.065-.123-.061-.255-.118c-1.538-.666-3.181-.685-5.514-.436l-3.13-1.702c.862-.092 1.63-.148 2.331-.148zm-284.297-47 3.13 1.702-.528.203c-17.38 6.822-33.083 25.486-35.556 44.79l-.574-.071c-3.247-.43-6.346-1.27-8.849-2.633l-3.128-1.702.447.235c2.571 1.3 5.713 2.088 8.974 2.47l.08-.584c2.74-19.29 18.591-37.829 36.004-44.41zm186.475 41.656 3.129 1.702-16.053 2.257-3.128-1.702 16.052-2.257zm-150.057.423 3.128 1.702-3.1.435-3.129-1.702 3.1-.435zm-34.295-35.415 3.13 1.702.22.129c2.669 1.661 3.49 6.114 3.485 9.675l-.005.395c-.225 11.444-9.276 21.586-19.378 24.954l-3.13-1.703.348-.119c10.078-3.522 19.015-13.756 19.035-25.23.008-3.656-.86-8.254-3.705-9.803zm227.43 30.747 3.13 1.702c1.244.676 2.121 1.927 2.32 3.762l-3.128-1.702c-.199-1.835-1.078-3.086-2.321-3.762zM137.26 154.036l3.13 1.702-6.259 13.159h.001l-.39.257-.477.315a568.104 568.104 0 0 0-5.465 3.662l-.12.081.12-.081-1.089.742c-28.522 19.498-66.87 50.506-66.938 86.71l.002.506c.105 9.894 3.804 16.748 10.046 20.143l-3.13-1.702-.315-.176c-6.153-3.511-9.75-10.478-9.731-20.474.067-36.615 39.292-67.914 67.906-87.37l.038-.025-.038.025.759-.515.774-.522a550.515 550.515 0 0 1 4.919-3.278l1.564.85-1.564-.85 6.257-13.16zm243.143 96.808.348.006a8.677 8.677 0 0 1 3.83 1.05l3.129 1.703-.285-.149c-1.536-.765-3.316-1.081-5.196-.816l-.282.043c-5.522.942-9.944 6.608-9.955 12.608l.004.344c.1 3.767 1.958 6.802 4.726 8.308l-3.128-1.702-.25-.141c-2.712-1.598-4.487-4.7-4.479-8.512.011-6.1 4.583-11.856 10.235-12.65l.329-.04c.328-.035.653-.052.974-.052zm-251.049-72.029 3.128 1.704-.146.437c-4.822 14.878-8.543 73.264-24.903 75.563l-.32.04c-1.475.15-2.716-.113-3.754-.677l-3.128-1.702.226.117c1.066.52 2.338.732 3.847.519l.492-.087c16.108-3.422 19.712-61.922 24.558-75.914zm236.992 67.804 3.128 1.7-15.866 2.23-3.128-1.701 15.866-2.23zM206.96 238.34l.44.005c2.192.051 4.152.483 5.779 1.368l3.13 1.702-.336-.173c-1.697-.837-3.733-1.214-5.995-1.2l-3.13-1.702h.112zm199.855-64.703 2.205 1.2.924.503.019.01.252.143a8.089 8.089 0 0 1 2.015 1.648l.177.212c1.093 1.357 1.632 3.043 1.675 4.984l.002.163.004.215-.006-.378a11.678 11.678 0 0 1-.017 1.16l-.021.303-.01.112c-.008.096-.018.193-.029.29l-.017.148a12.802 12.802 0 0 1-.086.613c-.42 2.628-1.526 5.504-3.05 8.22l-.368.65c-2.006 3.457-4.599 6.746-7.522 9.703l-.671.67c-2.93 2.882-6.161 5.461-9.534 7.776l-.787.528c-7.11 4.706-14.902 8.118-22.846 10.482l-1.187.337a102.546 102.546 0 0 1-13.197 2.739l-1.343.18c-3.135.4-6.279.659-9.42.788l-1.33.04a131.56 131.56 0 0 1-23.774-1.542l-1.55-.25c-3.61-.602-7.173-1.35-10.778-2.182l-2.136-.495a313.153 313.153 0 0 0-10.764-2.248l-3.129-1.702 2.163.421c3.6.713 7.184 1.487 10.736 2.322l1.543.35c3.596.808 7.162 1.52 10.787 2.082l1.308.199a131.972 131.972 0 0 0 23.795 1.302l1.346-.062c3.142-.166 6.284-.464 9.416-.905l1.208-.177c4.425-.674 8.83-1.632 13.179-2.9l.882-.267c7.93-2.441 15.69-5.94 22.749-10.742l.776-.539c3.35-2.356 6.545-4.98 9.43-7.908 3.106-3.14 5.837-6.657 7.89-10.351l.232-.423c1.507-2.782 2.566-5.705 2.895-8.345.013-.096.024-.193.034-.288l-.034.288c.019-.148.035-.295.049-.442l-.015.154c.015-.14.027-.28.038-.419l-.023.265c.014-.151.026-.301.035-.45l-.012.185c.011-.152.02-.302.026-.452l-.014.266c.009-.132.015-.263.019-.393l-.005.127c.006-.14.01-.28.011-.418l-.006.291c.004-.131.006-.262.006-.391v.1c.002-.17 0-.337-.006-.502-.006-.24-.019-.474-.039-.706a9.496 9.496 0 0 0-.178-1.172l.022.102a8.42 8.42 0 0 0-.148-.607 7.255 7.255 0 0 0-1.628-2.946 8.244 8.244 0 0 0-2.169-1.667l.11.059a9.756 9.756 0 0 0-.109-.06zm-92.53 13.382 3.128 1.702c-.4 2.536-.624 5.024-.628 7.397-.021 10.657 3.69 20.359 11.228 24.46l-3.129-1.702c-7.538-4.101-11.248-13.803-11.228-24.46.004-2.373.228-4.86.629-7.397zm-95.666 17.87 3.128 1.703-.264.862c-1.125 3.74-2.017 7.52-2.453 11.206v-.002l.001.001c-2.286.37-4.586.8-6.883 1.277l-3.129-1.702a159.59 159.59 0 0 1 5.51-1.048l1.373-.228c.47-3.97 1.466-8.048 2.717-12.068zm46.345-6.62 3.128 1.703-.225.73c-1.63 5.364-2.798 10.842-2.83 15.977l-2.121-.12c-2.126-.11-4.261-.194-6.397-.25l-3.128-1.701 2.134.064c2.134.074 4.266.175 6.385.304l.01-.702c.133-5.164 1.372-10.652 3.044-16.004zm1.827-114.167 3.13 1.702-.146.027c-.623.145-1.173.646-1.43 1.31l-.001-.002.002.002-38.06 96.728h-.001l-.24.423c-6.997 12.277-17.321 23.3-33.734 25.823l-.568.084-.408.052c-2.57.288-4.891-.15-6.807-1.193l-3.111-1.693.289.15c1.854.927 4.066 1.307 6.5 1.033l.408-.051c16.933-2.38 27.464-13.744 34.544-26.33l38.058-96.728.89.483-.888-.483c.255-.664.804-1.165 1.428-1.31l.145-.027zm66.081-9.287 3.129 1.702-19.769 2.778-2.5-1.36 2.5 1.361-.145.027c-.625.144-1.184.646-1.441 1.31l-38.136 96.942-.213.375c-4.806 8.423-12.587 18.615-19.347 19.566l-.258.03c-.848.075-1.565-.079-2.159-.402l-3.128-1.7.182.091c.62.289 1.36.402 2.234.279 6.862-.964 14.773-11.45 19.561-19.942l38.136-96.94 1.255.682-1.254-.683c.255-.664.814-1.165 1.439-1.31l.145-.028h.002l19.767-2.778zM202.91 153.639l3.128 1.7.176.105c.088.057.172.118.252.184.272.225.498.5.685.814.717 1.202.868 2.977.864 4.693l-.005.386a18.11 18.11 0 0 1-.004.145l.01-.53a18.395 18.395 0 0 1-.089 1.752 20.485 20.485 0 0 1-.14 1.12c-1.856 12.158-14.704 25.405-24.74 28.98l-3.128-1.701.326-.12c10.218-3.828 23.163-17.448 24.523-29.698a6.22 6.22 0 0 0 .018-.157l-.018.157c.016-.14.03-.28.042-.42l-.024.263a19.5 19.5 0 0 0 .054-.625l-.03.361a19.137 19.137 0 0 0 .063-.968l-.02.386c.011-.18.019-.358.024-.537l-.004.151c.008-.216.012-.432.013-.647v-.078c-.002-2.357-.305-4.808-1.976-5.716zm170.361-33.455.468.006c2.474.064 4.595.64 6.405 1.625l3.128 1.702-.3-.159c-2.529-1.288-5.65-1.798-9.46-1.262l-.605.091c-19.973 3.211-40.863 26.436-50.558 49.694l-.225.385c-4.83 8.245-12.322 17.822-18.86 18.741l-.26.03c-.853.077-1.572-.078-2.169-.402l-3.122-1.7.177.09c.559.26 1.217.379 1.984.31l.26-.03c6.642-.933 14.266-10.797 19.086-19.126l.298-.705c9.92-23.255 30.913-46.277 50.865-49.079a20.644 20.644 0 0 1 2.888-.211zm3.116 7.614 3.13 1.703c1.846 1.004 3.151 2.861 3.446 5.587h-.001l-.319.119c-7.874 3.04-14.157 14.036-14.34 22.643l-.003.347.003.393c.08 4.625 1.687 10.572 4.577 13.568l-.225.365c-4.091 6.556-10.49 12.246-17.4 13.217l-.388.05c-2.441.28-4.437-.096-6.04-.968l-3.113-1.693.242.126c1.557.775 3.47 1.098 5.782.833l.39-.05c7.037-.988 13.545-6.875 17.624-13.582l-.245-.264c-2.817-3.16-4.343-9.152-4.336-13.698.017-8.77 6.536-20.21 14.664-23.107l1.426.775-1.426-.776c-.295-2.726-1.6-4.583-3.448-5.588zm-151.84 14.412 3.13 1.702.33.189a8.082 8.082 0 0 1 1.473 1.12l.147.149c4.778 4.988 2.468 20.685-15.563 37.184l-3.127-1.7.542-.5c17.711-16.484 19.792-32.063 14.873-36.834a8.275 8.275 0 0 0-1.804-1.31zm178.962 21.645.499.004c2 .035 4.027.288 6.03.936l.485.162c.807.282 1.61.632 2.388 1.056l3.128 1.702-.47-.246a16.432 16.432 0 0 0-2.402-.973l-.517-.158c-2.415-.7-4.863-.847-7.243-.756l-.796.05c-.794.06-1.583.146-2.366.255l-.87.133c-1.157.19-2.301.431-3.432.718l-.878.226c-3.207.862-6.316 2.044-9.33 3.403l-3.13-1.702.825-.366c3.033-1.326 6.157-2.462 9.383-3.263l.852-.207c1.138-.264 2.289-.48 3.453-.643l.783-.102a35.4 35.4 0 0 1 2.38-.204 30.41 30.41 0 0 1 1.228-.025zM244.145 38.436l.162.008c.21.02.396.077.556.165l3.13 1.7-.137-.063a1.587 1.587 0 0 0-.65-.108l-.534.023c-3.598.16-7.868.493-12.184.897l-1.295.123c-7.774.753-15.492 1.705-19.498 2.267l-1.9.277c-62.712 9.482-123.554 51.698-123.636 95.98l.002.523c.115 12.516 5.195 22.876 13.918 27.621l-3.128-1.702-.362-.2c-8.62-4.9-13.582-15.368-13.56-27.944l.022-1.34c1.305-44.237 62.773-86.098 125.516-94.916 6.564-.923 23.1-2.89 33.511-3.31h.067zm-32.232 96.343.568.002c5.474.05 10.494.816 14.095 2.776l3.119 1.697-.346-.182c-6.348-3.235-16.796-2.994-26.436-1.684l-.545.076-.455.065c-11.053 1.595-20.803 4.502-21.709 5.019l-3.128-1.702.042-.023c1.147-.582 11.035-3.503 22.12-5.06 4.19-.59 8.55-.984 12.675-.984zm2.433-85.377 3.128 1.702-.941.575c-30.967 19.106-54.008 51.593-69.351 85.568l-3.128-1.702c15.497-34.318 38.85-67.12 70.292-86.143zm-78.104 66.49 3.128 1.702-.031.301c-.685 5.826-5.497 11.581-11.095 12.368l-.395.05c-2.352.27-4.329-.057-5.894-.91l-3.129-1.7.265.137c1.611.792 3.63 1.058 6.025.721 5.696-.8 10.576-6.742 11.126-12.67zm150.33-34.57 3.129 1.702-19.781 2.78-3.128-1.702 19.78-2.78zm.227-.016.151.007c.197.02.38.077.541.166l3.128 1.7-.135-.064a1.499 1.499 0 0 0-.783-.09l-3.13-1.704c.079-.01.154-.015.228-.015zm46.303-6.508.151.008c.198.02.381.078.544.167l3.13 1.702-.137-.066a1.489 1.489 0 0 0-.789-.092l-3.128-1.702c.078-.011.155-.017.229-.017z" fill="url(#u)" transform="translate(22 59)"/>
            <path d="M107.432 256.519c16.526-2.323 20.154-61.87 25.05-76-17.078 15.26-33.907 39.539-33.951 62.93-.011 5.839 1.864 14.06 8.901 13.07m39.75-119.271c15.497-34.32 38.852-67.12 70.292-86.143-.522.067-1.037.137-1.555.21-54.78 7.697-98.163 44.716-98.209 69.038-.013 7.014 3.772 10.86 10.534 9.91 5.696-.8 10.577-6.743 11.126-12.669 5.676 3.89 8.913 13.068 7.812 19.654M369.474 248.32l-26.929 68.73c-.728 1.882-.731 3.65-.734 5.028-.004 2.171 1.63 3.9 3.632 3.618 5.091-.716 11.13-9.372 13.866-14.657l9.544-24.642 16.053-2.257c-2.927 7.495-11.724 26.634-11.736 33.53-.004 2.172 1.455 3.925 3.643 3.617 4.012-.564 9.191-6.916 12.587-12.696 6.527-15.867 20.791-31.74 34.546-33.674 10.39-1.46 13.11 8.195 12.73 17.882-.193 2.791-.562 5.987-1.48 9.071 6.567-2.11 14.426-7.734 17.155-9.696 14.07-10.829 22.846-25.444 32.335-26.778 1.814-.256 4 .814 3.996 2.974-.006 3.252-2.615 4.856-5.164 5.215a7.944 7.944 0 0 1-1.584.064c-2.054 4.655-1.756 9.904-1.536 15.983 2.462-.262 4.155-.228 5.77.554.802.385 1.558.99 2.118 1.778.57.787.92 1.721 1.083 2.66.327 1.888.004 3.665-.449 5.271-.963 3.233-2.561 5.985-4.325 8.534-1.764 2.538-3.747 4.833-5.817 6.999a74.998 74.998 0 0 1-3.81 3.68c-4.324 8.248-11.097 14.55-19.96 15.796-7.96 1.118-13.766-3.511-16.039-10.607-.782.525-1.563 1.063-2.355 1.576-9.73 6.351-19.722 12.074-29.855 17.236a479.954 479.954 0 0 1-30.75 14.24 521.63 521.63 0 0 1-31.22 12.123c-20.943 7.37-42.026 13.892-63.23 19.233a785.199 785.199 0 0 1-31.848 7.394c-10.634 2.242-21.278 4.272-31.944 5.901-2.958.461-5.914.902-8.874 1.318a494.858 494.858 0 0 1-23.143 2.719c-10.686 1.003-21.383 1.535-32.056 1.148-5.341-.21-10.684-.67-16.001-1.785-5.154-1.14-10.25-2.605-15.107-4.687-4.865-2.046-9.532-4.617-13.758-7.915-4.226-3.274-7.989-7.335-10.805-12.196a37.742 37.742 0 0 1-4.85-16.58c-.34-5.98.683-12.175 2.814-17.92 2.1-5.776 5.187-11.123 8.825-15.905a73.61 73.61 0 0 1 12.433-12.58c-4.218 4.07-8.096 8.542-11.304 13.465-3.218 4.89-5.822 10.192-7.405 15.67-1.592 5.48-2.22 11.096-1.58 16.358a32.353 32.353 0 0 0 5.185 14.208c5.459 8.261 14.066 13.519 23.283 16.779 4.636 1.626 9.47 2.857 14.403 3.73 4.803.82 9.88 1.09 15.003 1.094 10.278.003 20.755-.923 31.234-2.063 3.952-.453 7.908-.96 11.868-1.516 6.539-.92 13.086-1.973 19.634-3.137 21.024-3.773 42.05-8.247 62.978-13.75a1083.53 1083.53 0 0 0 31.323-8.71c10.416-3.113 20.798-6.435 31.127-10.022 16.521-5.787 32.967-12.002 49.117-19.219-4.27-3.042-6.38-9.033-6.368-15.75.003-1.614.16-3.298.427-5.031-7.64 12.273-18.66 27.276-26.181 28.333-4.74.666-9.109-2.255-9.097-9.34.007-3.81.949-7.643 2.22-11.417-7.187 11.45-16.643 24.062-23.943 25.09-5.29.742-7.47-2.878-7.46-8.005.007-3.6 1.026-9.718 2.414-13.339l.16-.404-.152.314c-4.452 9.121-13.68 24.064-23.417 25.432-7.479 1.051-11.116-5.32-11.102-12.807.005-2.54.307-5.182.829-7.853a194.154 194.154 0 0 1-4.334 6.634l-.57.828c-6.303 9.086-13.51 17.431-19.107 18.217-5.84.821-7.654-4.63-7.645-9.947.01-4.723 1.293-9.436 2.94-13.796-4.756 9.33-15.175 26.538-26.49 28.127-6.926.975-8.375-5.715-8.366-11.424.006-2.777.54-6.114 1.36-9.243-7.19 11.463-16.852 23.819-25.825 25.08-6.564.923-8.918-3.86-8.906-10.352.011-6.11 2.025-13.478 4.41-19.317l10.26-26.239-6.2.872 2.198-5.625c12.044-3.864 21.72-12.105 27.582-24.544l3.1-.435-8.614 21.878 8.39-1.179-2.386 5.65-8.203 1.153-6.96 18.49c-1.103 2.516-1.835 5.573-1.839 8.137-.007 3.145 1.266 4.935 4.367 4.5 5.266-.74 11.656-8.485 14.724-14.468l9.773-24.795 15.877-2.23-9.342 23.547c-1.105 2.907-2.387 6.433-2.393 9.59-.005 2.563 1.08 4.179 3.642 3.818 9.478-1.332 19.381-30.284 22.86-39.03l15.69-2.207-10.083 25.824c-.917 2.097-1.46 4.333-1.464 6.504-.005 2.754 1.08 5.153 4.004 4.741 3.628-.509 8.442-6.264 11.651-11.39 7.219-16.188 21.063-30.793 32.729-32.433 4.388-.617 7.66 1.095 8.201 5.93l18.135-46.044 15.867-2.229zM337.58 78.93l-32.649 83.487c-2.718 7.108-6.523 14.655-6.538 22.546-.005 3.216 1.34 6.54 4.869 6.044 6.64-.933 14.267-10.797 19.086-19.126 9.794-23.493 31.01-46.952 51.163-49.785 14.348-2.016 18.93 10.782 18.905 24.228-.015 7.963-1.887 16.187-4.683 24.043 3.29-1.483 6.689-2.755 10.208-3.63a40.209 40.209 0 0 1 4.303-.849 35.948 35.948 0 0 1 3.163-.306c2.55-.098 5.177.08 7.76.914 2.57.814 5.129 2.305 7.092 4.638 1.984 2.309 3.254 5.404 3.699 8.58.455 3.175.218 6.389-.402 9.43-.611 3.04-1.616 5.923-2.809 8.664-2.428 5.467-5.713 10.307-9.338 14.66-3.634 4.355-7.688 8.2-11.97 11.59-8.553 6.778-17.983 11.792-27.575 15.276-7.678 2.833-15.465 4.69-23.208 5.776-1.952.275-3.903.501-5.846.681-9.663.93-19.204.67-28.492-.409-4.638-.535-9.263-1.238-13.735-2.187a290.992 290.992 0 0 0-12.693-2.25c-8.483-1.323-17.01-2.426-25.606-2.974-8.574-.693-17.202-.822-25.832-.57-7.056.252-14.139.827-21.18 1.817-1.767.248-3.534.522-5.295.824 6.596-.037 11.263 3.223 11.246 11.6-.036 19.298-20.298 32.764-35.258 38.413 2.896 9.43 6.716 18.539 6.695 28.97-.057 31.104-26.178 56.428-53.546 60.275-17.867 2.51-34.083-8-34.045-28.472.035-18.31 14.11-33.482 30.703-35.814 12.04-1.693 21.874 6.18 21.85 19.566-.024 12.211-8.792 22.094-19.919 23.657-4.376.615-8.573-.955-12.03-3.423 4.19-.98 7.672-5.599 7.68-10.333.01-4.723-4.183-8.654-8.56-8.04-7.3 1.026-10.776 8.599-10.79 15.493-.027 15.155 12.183 22.694 25.31 20.848 15.317-2.153 26.105-16.269 26.135-32.61.013-6.631-.996-13.044-2.04-19.457l-.33-2.026c-1.26-7.767-2.421-15.569-1.734-23.797-2.143-.481-4.33-.424-6.54-.623-2.45-.202-4.945-.67-7.383-1.69-2.417-1.014-4.831-2.548-6.74-4.974-1.941-2.384-3.166-5.736-3.358-9.198-.224-3.468.442-6.908 1.503-10 1.083-3.093 2.561-5.911 4.193-8.466 3.296-5.139 7.229-9.405 11.39-13.11 2.423-2.18 4.932-4.145 7.487-5.987-4.028-4.002-5.994-10.465-5.98-18.32.056-29.812 29.914-72.877 58.622-76.911 7.049-.991 12.187 2.38 12.172 10.557-.038 19.878-27.696 38.382-43.675 42.373-.015 7.903 5.396 12.684 12.708 11.656 16.933-2.38 27.462-13.743 34.544-26.33l38.058-96.728c.276-.715.894-1.241 1.575-1.337l19.78-2.78c1.254-.177 2.087 1.107 1.579 2.412l-32.65 83.487c-2.716 7.11-6.522 14.655-6.537 22.548-.005 3.216 1.34 6.54 4.858 6.045 6.861-.965 14.773-11.45 19.56-19.941l38.136-96.942c.276-.715.904-1.242 1.586-1.338l19.77-2.778c1.253-.176 2.097 1.106 1.578 2.413zm-9.031 216.477c-9.127 1.283-17.911 20.623-17.928 29.084-.005 2.753 1.45 6.488 4.55 6.052 9.116-1.28 17.54-21.163 17.556-29.625.004-2.752-1.264-5.92-4.178-5.511zm112.667 8.761c-2.377 1.128-4.929 2.069-7.491 2.832-1.924 5.728-4.781 11.552-8.276 16.8a298.69 298.69 0 0 0 8.1-4.757 181.525 181.525 0 0 0 4.39-2.752c.15-3.912 1.236-8.372 3.277-12.123zm-16.74-24.805c-10.94 1.538-20.445 17.442-20.84 28.318-.186 5.733 1.992 10.945 8.007 10.1 4.75-.67 9.132-4.63 11.877-9.156-2.194-2.054-3.463-5.22-3.457-8.757.384-5.572 4.952-14.483 10.242-16.211-.357-3.296-2.904-4.705-5.83-4.294zm57.357 15.068c-.426.059-.875.155-1.335.277-.007 3.786-.246 7.877-1.21 12.32a50.8 50.8 0 0 1-2.256 7.506c.132-.16.275-.312.408-.472 1.806-2.283 3.482-4.666 4.893-7.154 1.39-2.474 2.626-5.079 3.137-7.56.254-1.233.3-2.426.06-3.272-.251-.841-.69-1.267-1.415-1.533-.62-.215-1.407-.236-2.282-.112zm-13.064 6.624a110.334 110.334 0 0 0-4.403 3.43c-2.202 1.805-4.195 3.687-6.519 5.651-.55.48-1.112.927-1.673 1.385a3.448 3.448 0 0 0 1.615.165c5.553-.781 8.782-5.067 10.98-10.631zm8.792-28.37c-9.142 9.554-16.08 16.628-22.29 22.032 2.25.895 4.061 2.93 4.463 5.697.518-.393 1.034-.774 1.551-1.155 3.193-2.275 6.461-4.467 9.96-6.276.275-1.11.537-2.228.792-3.342l.254-1.113c1.428-6.29 2.735-12.317 5.27-15.842zm-279.13-30.202a138.261 138.261 0 0 0-13.209 4.029c-8.25 2.95-16.304 6.894-23.37 12.028-3.511 2.582-6.771 5.484-9.35 8.658-2.555 3.159-4.353 6.64-4.611 9.476-.146 1.431.071 2.717.718 4.004.624 1.276 1.754 2.47 3.203 3.428 2.8 1.85 6.58 2.909 10.535 3.373 2.499-19.501 18.495-38.347 36.084-44.996zm-.902 6.19c-10.215 1.436-13.535 20.008-13.552 28.481-.004 2.552.365 4.86.9 7.146 10.218-3.406 19.361-13.743 19.382-25.35.01-4.723-1.441-11.02-6.73-10.277zm49.968-204.921c-44.315 19.813-56.503 71.63-67.293 98.797.137-.078.474-.21.986-.385l.297-.099c3.19-1.046 11.616-3.3 20.881-4.6 11.66-1.64 24.643-1.771 30.184 3.907 5.322 5.458 1.867 25.07-18.488 41.183 18.212-16.666 20.385-32.515 15.415-37.332-3.1-3-8.896-3.411-15.599-2.47-16.217 2.28-37.73 12.486-39.109 13.124C159 190.815 124.453 277.796 84.914 283.353c-15.163 2.13-25.172-6.108-25.142-22.77.074-39.46 45.622-72.746 74.359-91.686l6.256-13.159c-5.708 7.815-14.106 13.385-22.77 14.602-18.153 2.55-29.494-11.636-29.458-30.635.084-44.729 62.16-87.35 125.537-96.257 4.005-.563 11.723-1.515 19.496-2.267l1.296-.123c4.531-.425 9.013-.77 12.718-.92 1.913-.066 2.139 2.797.291 3.614zM392.609 262.39c-.013 6.1-4.772 11.694-10.423 12.487-5.65.795-10.205-3.49-10.194-9.59.01-6.1 4.584-11.854 10.235-12.65 5.651-.794 10.392 3.653 10.382 9.753zm5.582-88.568c-.48.052-.964.112-1.448.181-3.76.528-7.625 1.511-11.474 2.808-.397.982-.948 2.353-1.578 3.77-8.696 18.165-24.717 39.126-43.938 41.827-15.436 2.17-22.997-11.088-22.968-26.29.004-2.374.228-4.861.629-7.396-6.814 10.935-15.422 23.213-23.77 31.636 4.33.827 8.636 1.74 12.9 2.744 4.12.95 8.186 1.79 12.329 2.43a131.665 131.665 0 0 0 25.104 1.504c3.589-.146 7.183-.464 10.762-.968a102.36 102.36 0 0 0 14.385-3.078c8.237-2.45 16.313-6.03 23.633-11.008 3.632-2.493 7.099-5.293 10.205-8.447 3.106-3.14 5.838-6.657 7.89-10.351 2.05-3.658 3.345-7.6 3.23-10.846-.072-3.218-1.506-5.734-4.56-7.215-3.02-1.462-7.142-1.772-11.331-1.301zm-176.444 32.77c-2.955 4.52-6.163 9.052-9.6 13.344a156.19 156.19 0 0 1 6.884-1.276c.47-3.97 1.466-8.05 2.716-12.068zm46.346-6.62c-3.573 5.496-7.507 11.15-11.573 16.338 2.847.074 5.694.196 8.519.37.031-5.37 1.306-11.112 3.054-16.708zm-64.4-44.946c-10.83 1.523-20.892 27.77-20.647 37.963 10.835-3.861 24.944-18.99 24.968-31.854.006-3.216-.527-6.641-4.32-6.109zm170.618-26.315c-16.524 2.322-30.915 26.84-30.945 43.217-.017 8.176 3.214 15.031 11.89 13.812 7.035-.99 13.543-6.875 17.624-13.582-2.975-3.081-4.589-9.286-4.58-13.96.016-8.772 6.533-20.211 14.662-23.109-.53-4.897-4.319-6.986-8.65-6.378z" fill="url(#v)" transform="translate(22 59)"/>
        </g>
    </g>
</svg>
